<svg xmlns="http://www.w3.org/2000/svg" viewBox="0 0 1024 1024">
  <path class="cog" d="M698 215c20 6 89 12 103 28 16 20 6 75 14 101 13 41 36 52 66 52 29 0 63-10 100-15 17 30 53 70 47 101-12 55-77 69-72 132l109 84c-6 20-12 89-28 103-20 16-76 6-101 14-80 26-47 90-37 166-17 10-68 53-90 53h-2c-25-2-57-49-81-61-15-7-28-11-39-11-46 0-68 54-105 102-20-5-89-11-103-27-16-20-5-75-14-100-13-41-37-53-67-53-28 0-62 10-99 15-10-17-55-71-53-92 2-25 48-57 60-80 38-76-30-98-91-145 6-20 12-89 28-103 20-16 74-6 100-14 80-26 48-90 38-166 17-10 68-53 90-53h2c25 2 57 48 80 60 16 8 29 11 40 11 46 0 67-53 105-102m-30-87l-78 106-2 3-13-13c-24-23-53-51-95-55h-9c-49 0-173 89-173 89l20 134h-18c-33 1-74 1-106 29-24 19-34 48-40 71l-26 120 109 80-13 14c-23 23-51 52-55 94-3 31 11 59 23 79l66 103 134-21v19c1 33 1 74 29 106 20 24 48 34 71 40l120 26 80-109 13 12c24 23 53 52 96 56h8c37 0 71-22 114-53l59-36-21-134h18c34-1 75-1 107-29 24-20 34-49 40-71l26-120-103-79c19-19 45-48 54-92 11-54-20-101-43-136l-38-63-134 21v-19c-1-33-1-74-29-106-20-24-48-34-71-40l-120-26z" transform="translate(-128 -128)" fill="#a06ed5"/>
  <g class="mark">
    <path d="M695 599a14 14 0 0 1-1 0H586a14 14 0 0 1-14-14V451a14 14 0 0 0-14-14h-40a81 81 0 0 0-81 81v244a81 81 0 0 0 81 81h40a14 14 0 0 0 14-14V695a14 14 0 0 1 14-14h108a14 14 0 0 1 14 14v134a14 14 0 0 0 14 14h40a81 81 0 0 0 81-81 36 36 0 0 0-10-25z" transform="translate(-128 -128)" fill="#5898e9"/>
    <path d="M829 626a8 8 0 0 0 14-6V518a81 81 0 0 0-81-81h-40a14 14 0 0 0-14 14v39a35 35 0 0 0 10 25z" transform="translate(-128 -128)" fill="#a06ed5"/>
  </g>
</svg>
