<?xml version="1.0" encoding="utf-8"?>
<!-- Generator: Adobe Illustrator 22.1.0, SVG Export Plug-In . SVG Version: 6.00 Build 0)  -->
<svg version="1.1" xmlns="http://www.w3.org/2000/svg" xmlns:xlink="http://www.w3.org/1999/xlink" x="0px" y="0px"
	 viewBox="0 0 1280 1280" enable-background="new 0 0 1280 1280" xml:space="preserve">
<path id="cog" d="M697.899,215.485c19.679,5.273,88.953,11.204,102.635,27.503c16.447,19.592,6.058,75.162,14.332,100.604
	c13.312,40.937,36.626,52.275,66.406,52.275c28.409,0,62.701-10.327,99.773-15.13c17.335,30.015,52.711,70.684,46.52,100.847
	c-11.467,55.87-77.035,69.42-72.036,132.316l108.975,83.989c-5.284,19.72-11.191,88.905-27.503,102.636
	c-19.682,16.567-75.688,6.054-101.271,14.401c-79.59,25.968-46.373,90.271-36.502,166.104
	c-17.307,9.992-68.676,53.177-90.696,53.177c-0.45,0-0.891-0.018-1.315-0.055c-25.497-2.208-57.525-48.828-81.382-60.965
	c-14.995-7.629-27.864-10.981-39.243-10.981c-45.531,0-67.102,53.732-104.49,102.292c-19.666-5.27-88.969-11.208-102.635-27.503
	c-16.458-19.622-5.952-74.865-14.336-100.28c-13.547-41.068-37.057-52.419-67.013-52.419c-28.32,0-62.4,10.146-99.266,14.922
	c-10.153-17.588-55-70.878-53.113-92.009c2.26-25.302,48.282-56.767,60.298-80.441c38.368-75.586-29.787-97.857-90.541-144.674
	c5.259-19.626,11.222-89.016,27.502-102.635c19.528-16.336,74.357-5.966,99.632-14.268c80.339-26.387,47.961-90.374,38.145-166.348
	c17.235-9.949,68.699-53.171,90.669-53.171c0.46,0,0.907,0.019,1.341,0.058c25.309,2.253,56.96,48.436,80.624,60.514
	c15.194,7.755,28.226,11.161,39.739,11.161C638.746,317.402,660.48,263.954,697.899,215.485 M668.346,128
	c0,0-72.271,99.141-77.999,106.404c-0.766,0.972-1.477,1.848-2.134,2.637c-3.823-3.33-9.497-8.824-13.57-12.769
	c-23.627-22.881-53.032-51.357-95.041-55.097c-2.687-0.239-5.431-0.36-8.156-0.36c-49.445,0-173.452,89.072-173.452,89.072
	s20.297,132.679,20.394,133.8c-5.023,0.362-13.055,0.491-18.794,0.583c-32.773,0.525-73.559,1.179-105.904,28.237
	c-23.851,19.951-33.534,48.919-39.306,71.927C149.954,510.089,128,611.692,128,611.692s108.164,79.395,109.014,80.108
	c-3.285,3.804-8.905,9.609-12.914,13.751c-22.794,23.549-51.163,52.857-54.91,94.819c-2.767,30.977,10.87,58.314,23.059,78.669
	c9.351,15.615,65.66,102.978,65.66,102.978s124.154-19.657,133.778-20.535c0.343,5.087,0.464,12.917,0.551,18.554
	c0.51,32.932,1.145,73.917,28.345,106.347c19.959,23.798,48.887,33.465,71.859,39.229c17.647,4.427,119.282,26.389,119.282,26.389
	s79.288-108.486,79.856-109.18c3.866,3.393,9.379,8.723,13.373,12.584c23.809,23.017,53.44,51.662,95.633,55.315
	c2.617,0.227,5.29,0.342,7.946,0.342c37.657,0,71.076-21.944,114.176-52.944c5.332-3.836,59.349-36.165,59.349-36.165
	s-20.745-132.787-20.829-133.597c5.166-0.31,12.625-0.425,18.072-0.509c33.267-0.511,74.668-1.148,107.192-28.524
	c23.726-19.971,33.372-48.844,39.125-71.767c4.426-17.636,26.383-119.262,26.383-119.262l-102.526-79.018
	c18.532-19.384,44.3-48.025,53.375-92.239c11.139-54.272-20.156-101.31-43.007-135.655c-4.779-7.184-37.867-63.443-37.867-63.443
	s-124.129,19.736-133.632,20.674c-0.327-5.127-0.448-12.77-0.536-18.31c-0.524-33.097-1.177-74.287-28.41-106.727
	c-19.962-23.78-48.877-33.442-71.836-39.203C769.916,149.944,668.346,128,668.346,128L668.346,128z"/>
<g id="mark">
	<g>
		<path d="M695.345,599.213c-0.518,0.058-1.044,0.09-1.577,0.09H586.233c-7.757,0-14.044-6.288-14.044-14.045V450.598
			c0-7.757-6.288-14.045-14.044-14.045h-40.205c-44.942,0-81.374,36.433-81.374,81.375v0v244.125v0
			c0,44.942,36.433,81.375,81.374,81.375h40.205c7.757,0,14.044-6.288,14.044-14.045V694.723c0-7.757,6.288-14.045,14.044-14.045
			h107.535c7.757,0,14.044,6.288,14.044,14.045v134.661c0,7.757,6.288,14.045,14.044,14.045h40.205
			c44.942,0,81.374-36.433,81.374-81.375v0l0,0c0-9.443-3.751-18.499-10.428-25.176L695.345,599.213z"/>
	</g>
	<g>
		<path d="M829.106,625.635c5.288,5.288,14.33,1.543,14.33-5.936v-11.928v-89.843v0c0-44.942-36.433-81.375-81.374-81.375h-40.205
			c-7.757,0-14.045,6.288-14.045,14.045v39.157c0,9.339,3.71,18.295,10.313,24.899L829.106,625.635z"/>
	</g>
</g>
<g>
</g>
<g>
</g>
<g>
</g>
<g>
</g>
<g>
</g>
<g>
</g>
<g>
</g>
<g>
</g>
<g>
</g>
<g>
</g>
<g>
</g>
<g>
</g>
<g>
</g>
<g>
</g>
<g>
</g>
</svg>
