<svg xmlns="http://www.w3.org/2000/svg" viewBox="0 0 1024 1024">
  <title>stroke-black</title>
  <path id="cog" d="M697.9,215.485c19.679,5.273,88.953,11.2,102.635,27.5,16.447,19.592,6.058,75.163,14.332,100.6,13.312,40.937,36.626,52.276,66.406,52.276,28.408,0,62.7-10.328,99.772-15.13,17.336,30.015,52.711,70.684,46.521,100.847C1016.1,537.454,950.53,551,955.529,613.9L1064.5,697.89c-5.284,19.719-11.191,88.9-27.5,102.635-19.682,16.567-75.687,6.054-101.271,14.4-79.59,25.968-46.373,90.271-36.5,166.1-17.307,9.992-68.676,53.177-90.7,53.177-.45,0-.891-.019-1.316-.055-25.5-2.208-57.525-48.828-81.382-60.966-14.994-7.628-27.863-10.981-39.243-10.981-45.531,0-67.1,53.732-104.49,102.292-19.666-5.27-88.969-11.209-102.635-27.5-16.458-19.622-5.952-74.865-14.336-100.28-13.547-41.068-37.057-52.42-67.013-52.42-28.319,0-62.4,10.146-99.266,14.922-10.152-17.588-55-70.878-53.113-92.009,2.26-25.3,48.282-56.768,60.3-80.441,38.367-75.585-29.787-97.857-90.541-144.674,5.259-19.627,11.221-89.017,27.5-102.636,19.529-16.336,74.357-5.966,99.632-14.267,80.339-26.388,47.961-90.375,38.145-166.349,17.235-9.948,68.7-53.17,90.669-53.17q.69,0,1.341.057c25.309,2.254,56.96,48.436,80.624,60.514C568.6,314,581.636,317.4,593.149,317.4c45.6,0,67.331-53.448,104.75-101.917M668.346,128s-72.27,99.141-78,106.4c-.766.972-1.477,1.848-2.134,2.638-3.823-3.33-9.5-8.824-13.57-12.769-23.627-22.881-53.032-51.357-95.042-55.1-2.687-.239-5.43-.36-8.156-.36-49.445,0-173.452,89.072-173.452,89.072s20.3,132.679,20.394,133.8c-5.023.363-13.055.491-18.794.583-32.773.526-73.559,1.179-105.905,28.237-23.851,19.951-33.534,48.919-39.3,71.927C149.954,510.089,128,611.692,128,611.692S236.164,691.087,237.014,691.8c-3.285,3.8-8.9,9.609-12.913,13.751-22.795,23.549-51.163,52.857-54.911,94.819-2.767,30.977,10.87,58.313,23.059,78.668,9.351,15.615,65.66,102.978,65.66,102.978s124.154-19.657,133.778-20.535c.343,5.088.464,12.917.551,18.554.51,32.932,1.145,73.917,28.345,106.347,19.959,23.8,48.887,33.465,71.859,39.229C510.088,1130.038,611.724,1152,611.724,1152s79.287-108.486,79.856-109.18c3.866,3.393,9.379,8.722,13.374,12.584,23.809,23.017,53.44,51.661,95.633,55.315,2.616.227,5.29.342,7.946.342,37.657,0,71.075-21.944,114.176-52.944,5.332-3.836,59.349-36.165,59.349-36.165s-20.746-132.787-20.829-133.6c5.167-.31,12.625-.425,18.072-.509,33.267-.511,74.668-1.147,107.192-28.523,23.726-19.971,33.371-48.845,39.124-71.768C1130.043,769.919,1152,668.293,1152,668.293l-102.526-79.018c18.532-19.384,44.3-48.025,53.375-92.239,11.139-54.273-20.156-101.31-43.007-135.655-4.779-7.184-37.867-63.443-37.867-63.443s-124.129,19.736-133.632,20.674c-.327-5.127-.449-12.77-.536-18.31-.525-33.1-1.178-74.288-28.41-106.728-19.962-23.78-48.877-33.442-71.837-39.2C769.916,149.944,668.346,128,668.346,128Z" transform="translate(-128 -128)"/>
  <g id="mark">
    <path d="M695.345,599.213a14.164,14.164,0,0,1-1.577.09H586.233a14.045,14.045,0,0,1-14.045-14.044V450.6a14.045,14.045,0,0,0-14.044-14.045H517.939a81.375,81.375,0,0,0-81.375,81.375h0V762.053h0a81.375,81.375,0,0,0,81.375,81.375h40.205a14.045,14.045,0,0,0,14.044-14.045V694.723a14.045,14.045,0,0,1,14.045-14.045H693.768a14.045,14.045,0,0,1,14.045,14.045v134.66a14.044,14.044,0,0,0,14.044,14.045h40.205a81.375,81.375,0,0,0,81.375-81.375h0a35.6,35.6,0,0,0-10.429-25.176Z" transform="translate(-128 -128)"/>
    <path d="M829.106,625.635a8.4,8.4,0,0,0,14.331-5.936V517.928h0a81.375,81.375,0,0,0-81.375-81.375H721.857A14.044,14.044,0,0,0,707.813,450.6v39.157a35.209,35.209,0,0,0,10.313,24.9Z" transform="translate(-128 -128)"/>
  </g>
</svg>
